<svg width="40" height="39" viewBox="0 0 40 39" fill="none" xmlns="http://www.w3.org/2000/svg">
<path d="M12.5596 0.00123439C13.8196 0.0395537 15.0396 0.259554 16.2216 0.661554H16.3396C16.4196 0.699554 16.4796 0.741554 16.5196 0.779554C16.9616 0.921554 17.3796 1.08155 17.7796 1.30155L18.5396 1.64155C18.8396 1.80155 19.1996 2.09955 19.3996 2.22155C19.5996 2.33955 19.8196 2.46155 19.9996 2.59955C22.2216 0.901554 24.9196 -0.0184463 27.6996 0.00123439C28.9616 0.00123439 30.2216 0.179554 31.4196 0.581554C38.8016 2.98155 41.4616 11.0816 39.2396 18.1616C37.9796 21.7796 35.9196 25.0816 33.2216 27.7796C29.3596 31.5196 25.1216 34.8396 20.5596 37.6996L20.0596 38.0016L19.5396 37.6796C14.9616 34.8396 10.6996 31.5196 6.8016 27.7596C4.1216 25.0616 2.0596 21.7796 0.779598 18.1616C-1.4804 11.0816 1.1796 2.98155 8.6416 0.539554C9.2216 0.339554 9.8196 0.199554 10.4196 0.121554H10.6596C11.2216 0.0395537 11.7796 0.00123439 12.3396 0.00123439H12.5596ZM30.3796 6.32155C29.5596 6.03955 28.6596 6.48155 28.3596 7.32155C28.0796 8.16155 28.5196 9.08155 29.3596 9.37955C30.6416 9.85955 31.4996 11.1216 31.4996 12.5196V12.5816C31.4616 13.0396 31.5996 13.4816 31.8796 13.8216C32.1596 14.1616 32.5796 14.3596 33.0196 14.4016C33.8396 14.3796 34.5396 13.7216 34.5996 12.8796V12.6416C34.6596 9.83955 32.9616 7.30155 30.3796 6.32155Z" fill="currentColor"/>
</svg>
